<?xml version="1.0" encoding="utf-8"?>
<!-- Generator: Adobe Illustrator 23.1.0, SVG Export Plug-In . SVG Version: 6.00 Build 0)  -->
<svg version="1.1" id="Layer_1" xmlns="http://www.w3.org/2000/svg" xmlns:xlink="http://www.w3.org/1999/xlink" x="0px" y="0px"
	 viewBox="0 0 1929.6 1806.8" style="enable-background:new 0 0 1929.6 1806.8;" xml:space="preserve">
<style type="text/css">
	.st0{fill:none;stroke:#5B1647;stroke-width:15;stroke-linecap:round;stroke-miterlimit:10;}
	.st1{fill:none;stroke:#5B1647;stroke-width:15;stroke-miterlimit:10;}
	.st2{fill:#5B1647;}
	.st3{fill:none;stroke:#5B1647;stroke-width:15;stroke-linejoin:round;stroke-miterlimit:10;}
	.st4{fill:#FFFFFF;stroke:#5B1647;stroke-width:15;stroke-linecap:round;stroke-miterlimit:10;}
	.st5{fill:none;stroke:#5B1647;stroke-width:14;stroke-linecap:round;stroke-miterlimit:10;}
	.st6{fill:none;stroke:#5B1647;stroke-width:14.9997;stroke-linecap:round;stroke-miterlimit:9.9998;}
</style>
<line class="st0" x1="805.6" y1="1477.2" x2="793" y2="1662.9"/>
<line class="st1" x1="915.4" y1="1454.8" x2="915.4" y2="1662.9"/>
<path class="st1" d="M793,1662.9c0,28.3-56,51.2-125.1,51.2s-125.1-22.9-125.1-51.2"/>
<path class="st1" d="M1172.7,1662.9c0,28.3-57.6,51.2-128.7,51.2c-71.1,0-128.7-22.9-128.7-51.2"/>
<path class="st1" d="M485.5,1361.7c-10-21.2-15.5-44.9-15.5-69.9c0-86.7,68.1-150.7,153.1-157.2"/>
<path class="st1" d="M485.5,1361.7c5.4,10.5,5,20,5,21.9c0,27.3-22.1,49.4-49.4,49.4c-1.6,0-6.8,0.2-13.2-1.8h-0.2
	c10.5,62.6,64.2,108.3,124.8,108.4c2.9,0,5.7-0.1,8.6-0.3"/>
<line class="st1" x1="623.1" y1="1134.6" x2="542.9" y2="1662.9"/>
<path class="st1" d="M432.2,1437.3c51.6,80.4,162.9,41.4,143.6-57.3c-20.6-105.4-21.9-134.3,33.5-167.5"/>
<path class="st1" d="M552.1,1600.9c65.6,41.9,145.7,44,238.6,10.7"/>
<path class="st1" d="M920.1,1617.8c97.6,24.9,183.9,28.8,243.4-16.9"/>
<path class="st0" d="M805.6,1477.2c19.5-15.4,97-28.1,145.3-19.1"/>
<path class="st1" d="M754,444.7c-41-95-103.6-170.8-179.4-234.6c-15-12.6-38-3.8-40.6,15.5c-23.5,177.3,33.8,266.6,128,315.9"/>
<path class="st0" d="M761,441.3c-62.7,33.4-89.7,66.1-116.9,121"/>
<path class="st1" d="M707.3,476.5c-28.5-61.4-63.1-127.6-113.6-183.2c-9.9-10.9-25-2.7-26.1,11.9c-5.3,69.9,25.8,150.6,103.3,215.3"
	/>
<ellipse transform="matrix(0.7071 -0.7071 0.7071 0.7071 -168.2685 979.955)" class="st2" cx="1098.8" cy="693.1" rx="20.5" ry="11.9"/>
<ellipse transform="matrix(0.7071 -0.7071 0.7071 0.7071 -144.2615 1037.8473)" class="st2" cx="1180.7" cy="693.1" rx="11.9" ry="20.5"/>
<path class="st2" d="M838.3,678c15.7-10.5,24.5-29.7,20.7-49.4c-5-26.3-30.4-43.5-56.6-38.5c-26.3,5-43.5,30.4-38.5,56.6
	c1.7,8.8,5.7,16.6,11.2,22.9L838.3,678z"/>
<path class="st0" d="M998,803.6H824.1c10.2,44,24.3,51.5,131.1,45.5L998,803.6z"/>
<path class="st0" d="M886.3,372.9c-40.2-98.4-142-63.8-179.8-16.6"/>
<path class="st0" d="M931.8,311.1c-32.3-7.1-55.9,10.5-62.6,31.7"/>
<path class="st0" d="M880.3,380.8c-118.6-85.9-203.4,59.4-38.1,115.3c-13.5-38.4-22.8-76.1,38.1-102.9"/>
<path class="st3" d="M959.6,277.9c-1.5,3.2-1.4,6.8,0,10.4c-7,0.9-12.6,4-15.1,9.3c-1.1,2.4-1.5,4.9-1.2,7.6
	c-6.8,1.6-12.1,5.2-14.7,10.7c-1.6,3.5-2,7.3-1.2,11.3c-6.3,2-11.3,5.7-13.8,11.1c-1.4,2.9-1.9,6.1-1.7,9.3
	c-6.7,2.4-11.9,6.5-14.6,12.3c-1.1,2.4-1.8,5-2,7.6c-6.8,2.7-12.1,7.2-14.9,13.3c-1.9,4.1-2.6,8.7-2.1,13.3
	c-6.4,3-11.4,7.5-14.2,13.4c-8.9,19,7.6,45.5,36.8,59.2s60.2,9.5,69.1-9.5c2.9-6.1,3.1-12.9,1.1-19.9c3.7-2.6,6.7-5.9,8.6-9.9
	c2.8-5.9,2.9-12.6,0.9-19.4c2.1-1.9,3.8-4.1,5-6.7c2.9-6.1,2.6-13.2-0.3-20.3c2.3-1.8,4.1-4.1,5.3-6.7c2.5-5.3,2.3-11.3-0.1-17.3
	c3.7-1.9,6.5-4.7,8.2-8.3c2.6-5.6,1.9-12.1-1.4-18.5c2.1-1.5,3.7-3.4,4.8-5.6c2.5-5.3,1.3-11.8-2.6-17.8c3.6-1.3,6.3-3.5,7.8-6.6
	l30.2-128.7L959.6,277.9z"/>
<path class="st1" d="M586.2,482.6c-16.7,71.9-58.2,106.5-124,104.8c14.9,55.5,47.6,79,92.9,80.1c4.6,42.2-26.4,70.9-72.3,94
	c24.8,47.1,69.8,74.4,136.4,80.7c8.9,38.4-26.2,57.2-76.6,65.7"/>
<path class="st1" d="M519,657"/>
<path class="st4" d="M771.6,675.8c25-2.9,47.8,0,68.5,8.8"/>
<path class="st1" d="M1278,864.7c49.3,48.8,70,68.7,78.4,182.6"/>
<path class="st0" d="M827.3,560.2c-36.1-5.8-64.7,8.1-85.7,41.7"/>
<line class="st0" x1="1115.4" y1="616" x2="1040.4" y2="616"/>
<path class="st2" d="M1033.3,616c7.1-19.3,19.9-31.9,32.8-29.4c0.3,0.1,0.7,0.1,1,0.2c8.6,2.2,14.9,10.8,17.8,22.7"/>
<path class="st5" d="M1057.5,563.2c15.8-11.4,53.2-4.8,57.9,21.5"/>
<path class="st0" d="M304.4,990.9c133.5,80.6,175.1,122.9,337,146.8"/>
<path class="st0" d="M678,866.8c-3,45.5-6.7,58.3-12.6,75.8c-4.9,14.5-21.5,21.4-35.3,14.6C512.6,899.3,503.8,876.7,434,799.9"/>
<path class="st0" d="M1015.1,944.9c0.9,8.7-0.4,5.9,14.1,22.2c13.6,9.9,31,13.1,47.4,9.2c132.4-31.8,137.2-59.2,243-147.2
	c65.8,46.6,100.6,104.1,79.4,191c-65.3,44.3-191.8,117.7-303.2,122.6l76.9,520.3"/>
<line class="st1" x1="711.9" y1="1636" x2="711.9" y2="1710.8"/>
<line class="st1" x1="1098.8" y1="1630.4" x2="1098.8" y2="1709.2"/>
<path class="st0" d="M486.1,858.1c7,86.2-38.3,135.2-105.8,180"/>
<ellipse transform="matrix(0.5 -0.866 0.866 0.5 -589.0664 758.9788)" class="st6" cx="362.8" cy="889.6" rx="117" ry="66.6"/>
<path class="st0" d="M856.9,1065.7l-51.7,157.8c-1.7,5.1-0.6,10.7,2.7,14.9l56.6,70c9.7,12,27.9,12.2,37.9,0.5l61.9-72.7
	c3.6-4.3,4.7-10.1,2.9-15.4l-53.3-155l32.3-38.8l-38.4-35.1H866l-41.4,28.3L856.9,1065.7z"/>
<line class="st0" x1="856.9" y1="1065.7" x2="914" y2="1065.7"/>
<line class="st1" x1="349.2" y1="887.9" x2="405.6" y2="783.2"/>
<path class="st1" d="M678,866.8c-52.5-51.9-85.1-124-85.1-203.7c0-52.2,14-101.2,38.4-143.3"/>
<path class="st0" d="M1041.7,430c46.1,38,73.7,95.5,73.7,157v29h121c29.8,237.7-82.1,348.4-357.1,333.5c-47.4,0-92-11.5-131.4-31.9"
	/>
<path class="st0" d="M992.2,368.7c69.1-4.1,58.4,80.7,20.6,127.4c1.1-35.2-14.9-61.6-32.2-70.6"/>
<path class="st1" d="M1093.5,494.8c58.1-54.1,81.5-132.1,63.3-269.1c-2.6-19.4-25.6-28.1-40.6-15.5
	c-44.1,37.1-83.6,78.1-117.1,124.7"/>
<line class="st1" x1="226.7" y1="1466.1" x2="438.7" y2="1466.1"/>
<line class="st1" x1="1143.6" y1="1466.1" x2="1808.3" y2="1466.1"/>
<path class="st1" d="M1481.4,437.8l-197.3,11.7c16.9-64.3,13.8-130.1-11.7-197.3l197.3-11.7C1500.3,295.6,1498.3,363.7,1481.4,437.8
	z"/>
<path class="st1" d="M1469.7,240.4c30.6,55.2,28.6,123.3,11.7,197.3"/>
<path class="st1" d="M1771.3,443.2h-197.7c20.6-63.2,21.5-129,0-197.7h197.7C1798.5,302.5,1792.5,370.3,1771.3,443.2z"/>
<path class="st1" d="M1476.9,698.9l-197.7,2.4c19.8-63.5,19.9-129.3-2.4-197.7l197.7-2.4C1502.4,557.7,1497.3,625.7,1476.9,698.9z"
	/>
<path class="st1" d="M1474.5,501.2c28,56.6,22.8,124.5,2.4,197.7"/>
<path class="st1" d="M1294.1,850.8c0.2-29.1-3.6-59-11.7-89.6l197.5,8.6c24.7,58,15.9,125.6-8.6,197.5l-66.1-2.9"/>
<path class="st1" d="M1479.9,769.7c24.8,58.1,15.9,125.6-8.6,197.5"/>
<path class="st1" d="M1763.1,706.9l-197-15.9c25.6-61.4,31.8-126.9,15.9-197l197,15.9C1801.5,568.7,1790.1,635.9,1763.1,706.9z"/>
<path class="st1" d="M1771.3,245.6c27.3,56.9,21.3,124.8,0,197.7"/>
<path class="st1" d="M1771.3,957h-197.7c20.6-63.2,21.5-129,0-197.7h197.7C1798.5,816.2,1792.5,884.1,1771.3,957z"/>
<path class="st1" d="M1771.3,759.3c27.3,56.9,21.3,124.8,0,197.7"/>
<polyline class="st1" points="122.1,1593.1 226.7,1466.1 226.7,86.4 "/>
</svg>
